default_states
version=1
nRows=4
nColumns=205
inDegrees=yes

# SIMM Motion File Header:
name default_states
datacolumns 205
datarows 4
otherdata 1
range 0.58535067 0.58868010
endheader
time	pelvis_tilt	pelvis_list	pelvis_rotation	pelvis_tx	pelvis_ty	pelvis_tz	hip_flexion_r	hip_adduction_r	hip_rotation_r	knee_angle_r	knee_angle_r_beta	ankle_angle_r	subtalar_angle_r	mtp_angle_r	hip_flexion_l	hip_adduction_l	hip_rotation_l	knee_angle_l	knee_angle_l_beta	ankle_angle_l	subtalar_angle_l	mtp_angle_l	lumbar_extension	lumbar_bending	lumbar_rotation	arm_flex_r	arm_add_r	arm_rot_r	elbow_flex_r	pro_sup_r	wrist_flex_r	wrist_dev_r	arm_flex_l	arm_add_l	arm_rot_l	elbow_flex_l	pro_sup_l	wrist_flex_l	wrist_dev_l	pelvis_tilt_u	pelvis_list_u	pelvis_rotation_u	pelvis_tx_u	pelvis_ty_u	pelvis_tz_u	hip_flexion_r_u	hip_adduction_r_u	hip_rotation_r_u	knee_angle_r_u	knee_angle_r_beta_u	ankle_angle_r_u	subtalar_angle_r_u	mtp_angle_r_u	hip_flexion_l_u	hip_adduction_l_u	hip_rotation_l_u	knee_angle_l_u	knee_angle_l_beta_u	ankle_angle_l_u	subtalar_angle_l_u	mtp_angle_l_u	lumbar_extension_u	lumbar_bending_u	lumbar_rotation_u	arm_flex_r_u	arm_add_r_u	arm_rot_r_u	elbow_flex_r_u	pro_sup_r_u	wrist_flex_r_u	wrist_dev_r_u	arm_flex_l_u	arm_add_l_u	arm_rot_l_u	elbow_flex_l_u	pro_sup_l_u	wrist_flex_l_u	wrist_dev_l_u	add_brev_r.activation	add_long_r.activation	add_long_r.fiber_length	add_mag3_r.activation	add_mag4_r.activation	add_mag4_r.fiber_length	add_mag2_r.activation	add_mag1_r.activation	bifemlh_r.activation	bifemlh_r.fiber_length	bifemsh_r.activation	ext_dig_r.activation	ext_dig_r.fiber_length	ext_hal_r.activation	ext_hal_r.fiber_length	flex_dig_r.activation	flex_dig_r.fiber_length	flex_hal_r.activation	flex_hal_r.fiber_length	lat_gas_r.activation	lat_gas_r.fiber_length	med_gas_r.activation	med_gas_r.fiber_length	glut_max1_r.activation	glut_max2_r.activation	glut_max3_r.activation	glut_med1_r.activation	glut_med2_r.activation	glut_med3_r.activation	glut_min1_r.activation	glut_min2_r.activation	glut_min3_r.activation	glut_min3_r.fiber_length	grac_r.activation	iliacus_r.activation	per_brev_r.activation	per_brev_r.fiber_length	per_long_r.activation	per_long_r.fiber_length	peri_r.activation	peri_r.fiber_length	psoas_r.activation	rect_fem_r.activation	rect_fem_r.fiber_length	sar_r.activation	semimem_r.activation	semimem_r.fiber_length	semiten_r.activation	semiten_r.fiber_length	soleus_r.activation	soleus_r.fiber_length	tfl_r.activation	tfl_r.fiber_length	tib_ant_r.activation	tib_ant_r.fiber_length	tib_post_r.activation	tib_post_r.fiber_length	vas_int_r.activation	vas_int_r.fiber_length	vas_lat_r.activation	vas_lat_r.fiber_length	vas_med_r.activation	vas_med_r.fiber_length	add_brev_l.activation	add_long_l.activation	add_long_l.fiber_length	add_mag3_l.activation	add_mag4_l.activation	add_mag4_l.fiber_length	add_mag2_l.activation	add_mag1_l.activation	bifemlh_l.activation	bifemlh_l.fiber_length	bifemsh_l.activation	ext_dig_l.activation	ext_dig_l.fiber_length	ext_hal_l.activation	ext_hal_l.fiber_length	flex_dig_l.activation	flex_dig_l.fiber_length	flex_hal_l.activation	flex_hal_l.fiber_length	lat_gas_l.activation	lat_gas_l.fiber_length	med_gas_l.activation	med_gas_l.fiber_length	glut_max1_l.activation	glut_max2_l.activation	glut_max3_l.activation	glut_med1_l.activation	glut_med2_l.activation	glut_med3_l.activation	glut_min1_l.activation	glut_min2_l.activation	glut_min3_l.activation	glut_min3_l.fiber_length	grac_l.activation	iliacus_l.activation	per_brev_l.activation	per_brev_l.fiber_length	per_long_l.activation	per_long_l.fiber_length	peri_l.activation	peri_l.fiber_length	psoas_l.activation	rect_fem_l.activation	rect_fem_l.fiber_length	sar_l.activation	semimem_l.activation	semimem_l.fiber_length	semiten_l.activation	semiten_l.fiber_length	soleus_l.activation	soleus_l.fiber_length	tfl_l.activation	tfl_l.fiber_length	tib_ant_l.activation	tib_ant_l.fiber_length	tib_post_l.activation	tib_post_l.fiber_length	vas_int_l.activation	vas_int_l.fiber_length	vas_lat_l.activation	vas_lat_l.fiber_length	vas_med_l.activation	vas_med_l.fiber_length
      0.58535067	     -6.98116924	      3.47324962	     -5.48393580	      0.12809424	      0.97294110	     -0.21134131	     22.28670935	     -4.63966369	     -1.68769229	     72.28893517	     72.28893517	    -25.03514024	      0.00000000	     -0.00000000	     28.73004199	      3.55622506	     -3.41159713	     27.86973460	     27.86973460	      8.35168583	      0.00000000	     -0.00000000	     -8.64257401	     -7.01521208	      8.04024939	     -0.43154773	     -6.69300634	     -6.21578599	     37.29063645	     51.10284793	      0.00000000	     -0.00000000	      7.44031390	    -12.40843230	      1.28258571	     39.83109874	     47.16649609	     -0.00000000	      0.00000000	     -2.33895286	      3.17427507	     -6.46123798	      1.27687316	      0.18609828	      0.01471916	    213.55158085	      3.88274845	     13.79880631	    177.03930389	    177.03930389	    218.17388591	      0.00000000	     -0.00000000	   -108.36726420	     15.69281697	     12.43246928	    -17.56282998	    -17.56282998	    672.16808509	      0.00000000	     -0.00000000	     -6.40279862	     -3.94282284	    -11.06773812	    -16.94734374	     -2.09773276	     10.99537352	    -26.91850099	     -2.23540635	      0.00000000	      0.00000000	     15.47727340	     -1.35110300	      5.47191766	     54.45911301	      2.38098880	     -0.00000000	      0.00000000	      0.06726083	      0.27526535	      0.10885224	      0.02000000	      0.02000000	      0.16250007	      0.02000000	      0.02000000	      0.02000000	      0.07593663	      0.48852264	      0.34794182	      0.08858525	      0.02000000	      0.10126394	      0.02000000	      0.04497183	      0.02000000	      0.04836924	      0.02000000	      0.03157794	      0.02000000	      0.02127331	      0.02000000	      0.02000000	      0.02000000	      0.03094436	      0.02000000	      0.02000000	      0.09821878	      0.09191078	      0.06251301	      0.03699613	      0.23478818	      0.54991080	      0.02000000	      0.05148579	      0.02000000	      0.05638316	      0.08256704	      0.02330920	      0.58990281	      0.02000000	      0.10720724	      0.50432941	      0.07402730	      0.03697603	      0.05259335	      0.19253782	      0.02000000	      0.03629335	      0.22038362	      0.09416821	      0.53136329	      0.08888273	      0.02000000	      0.03876359	      0.02000000	      0.14047305	      0.02000000	      0.13750692	      0.02000000	      0.13526464	      0.02000000	      0.02000000	      0.09647439	      0.02000000	      0.05319166	      0.16334073	      0.02000000	      0.02000000	      0.02000000	      0.11053250	      0.02000000	      0.02000000	      0.07136495	      0.02000000	      0.08066946	      0.02000000	      0.05065248	      0.02000000	      0.05757498	      0.02000000	      0.07633747	      0.02000000	      0.06628276	      0.56742510	      0.68106089	      0.02000000	      0.99999635	      0.97866152	      0.64294839	      0.83579566	      0.71407302	      0.41108549	      0.04298531	      0.02000000	      0.32082059	      0.02000000	      0.05573895	      0.02000000	      0.06202136	      0.31747852	      0.02662642	      0.02000000	      0.08007054	      0.07164321	      0.02000000	      0.32112250	      0.06909000	      0.06236508	      0.24098432	      0.02000000	      0.05873534	      0.91873524	      0.07404159	      0.02000000	      0.06850123	      0.02000000	      0.04485691	      0.17279904	      0.10855169	      0.53108857	      0.10230451	      0.30875690	      0.10562080
      0.58646048	     -6.98368358	      3.47554260	     -5.49154125	      0.12951156	      0.97314693	     -0.21132334	     22.52287966	     -4.63342114	     -1.67209493	     72.48271248	     72.48271248	    -24.78912105	      0.00000000	     -0.00000000	     28.60926110	      3.57255228	     -3.39735608	     27.85208481	     27.85208481	      9.16576225	      0.00000000	     -0.00000000	     -8.64968396	     -7.01830760	      8.02853956	     -0.45053534	     -6.69544105	     -6.20359927	     37.26102969	     51.10027314	      0.00000000	      0.00000000	      7.45713750	    -12.40995353	      1.28866899	     39.89215058	     47.16913221	     -0.00000000	      0.00000000	     -2.19007406	      0.98342572	     -7.24955126	      1.27730116	      0.18484062	      0.01766828	    212.05289283	      7.33720855	     14.31295004	    172.17798165	    172.17798165	    225.22762678	      0.00000000	     -0.00000000	   -109.31316891	     13.75642168	     13.19763173	    -14.37320250	    -14.37320250	    794.61115569	      0.00000000	     -0.00000000	     -6.40910590	     -1.66342085	    -10.03295743	    -17.26890186	     -2.28765229	     10.96583808	    -26.44167212	     -2.40372340	      0.00000000	     -0.00000000	     14.84143643	     -1.39184951	      5.49187025	     55.56140918	      2.36915944	      0.00000000	      0.00000000	      0.06759365	      0.27074106	      0.10869205	      0.02000000	      0.02000000	      0.16270621	      0.02000000	      0.02000000	      0.02000000	      0.07603718	      0.48531749	      0.37618589	      0.08832626	      0.02000000	      0.10113995	      0.02000000	      0.04502318	      0.02000000	      0.04844776	      0.02000000	      0.03165671	      0.02000000	      0.02131597	      0.02000000	      0.02000000	      0.02000000	      0.03212888	      0.02000000	      0.02000000	      0.09843387	      0.09065117	      0.06181898	      0.03704864	      0.23246106	      0.54314429	      0.02000000	      0.05152296	      0.02000000	      0.05642923	      0.08149477	      0.02337103	      0.58168323	      0.02000000	      0.10717090	      0.49791443	      0.07747374	      0.03696797	      0.05422617	      0.19253041	      0.02000000	      0.03645905	      0.21583730	      0.09416365	      0.56899889	      0.08869309	      0.02000000	      0.03881843	      0.02000000	      0.14057112	      0.02000000	      0.13759538	      0.02000000	      0.13535114	      0.02000000	      0.02000000	      0.09654459	      0.02000000	      0.05266236	      0.16322640	      0.02000000	      0.02000000	      0.02000000	      0.11042063	      0.02000000	      0.02000000	      0.07103021	      0.02000000	      0.08029552	      0.02000000	      0.05070869	      0.02000000	      0.05772546	      0.02000000	      0.07682689	      0.02000000	      0.06674803	      0.56709345	      0.68381944	      0.02000000	      0.99999655	      0.97983104	      0.63127045	      0.84582312	      0.72267147	      0.41791797	      0.04298162	      0.02000000	      0.31279061	      0.02000000	      0.05581527	      0.02000000	      0.06211755	      0.30957725	      0.02666118	      0.02000000	      0.07904713	      0.07172451	      0.02000000	      0.31308085	      0.06917217	      0.06167372	      0.24088746	      0.02000000	      0.05915897	      0.92338973	      0.07411042	      0.02000000	      0.06814452	      0.02000000	      0.04493939	      0.17329969	      0.10855126	      0.53559229	      0.10231586	      0.31352800	      0.10561101
      0.58757029	     -6.98602206	      3.47548865	     -5.50003746	      0.13092938	      0.97335139	     -0.21130212	     22.75738039	     -4.62344409	     -1.65591546	     72.67112517	     72.67112517	    -24.53508897	      0.00000000	     -0.00000000	     28.48735476	      3.58681773	     -3.38237367	     27.83751964	     27.83751964	     10.11478049	      0.00000000	     -0.00000000	     -8.65680159	     -7.01896578	      8.01798304	     -0.46987453	     -6.69807912	     -6.19144728	     37.23193339	     51.09751464	      0.00000000	      0.00000000	      7.47325822	    -12.41152500	      1.29477791	     39.95442034	     47.17175385	     -0.00000000	      0.00000000	     -2.01913712	     -1.05528887	     -8.06559139	      1.27777873	      0.18361648	      0.02056063	    210.53829318	     10.61223841	     14.84706907	    167.37089203	    167.37089203	    232.63362963	      0.00000000	     -0.00000000	   -110.40233472	     11.97867213	     13.77273970	    -12.02613567	    -12.02613567	    915.30001201	      0.00000000	     -0.00000000	     -6.41986808	      0.44949082	     -8.99044231	    -17.58061464	     -2.46416062	     10.93278700	    -25.99889449	     -2.56640794	      0.00000000	     -0.00000000	     14.21089581	     -1.44162148	      5.51812629	     56.65367997	      2.35495835	     -0.00000000	      0.00000000	      0.06787017	      0.26636150	      0.10853048	      0.02000000	      0.02000000	      0.16290795	      0.02000000	      0.02000000	      0.02000000	      0.07613876	      0.48223158	      0.40070052	      0.08806117	      0.02000000	      0.10101139	      0.02000000	      0.04507636	      0.02000000	      0.04852876	      0.02000000	      0.03174407	      0.02000000	      0.02137568	      0.02000000	      0.02000000	      0.02000000	      0.03309346	      0.02000000	      0.02000000	      0.09861500	      0.08941723	      0.06113746	      0.03710327	      0.23019729	      0.53666926	      0.02000000	      0.05156133	      0.02000000	      0.05647707	      0.08044355	      0.02343469	      0.57383993	      0.02000000	      0.10713336	      0.49176425	      0.08033002	      0.03696388	      0.05557001	      0.19253040	      0.02000000	      0.03663047	      0.21142978	      0.09415809	      0.60233040	      0.08848913	      0.02000000	      0.03887503	      0.02000000	      0.14066729	      0.02000000	      0.13768118	      0.02000000	      0.13543548	      0.02000000	      0.02000000	      0.09661807	      0.02000000	      0.05214220	      0.16311221	      0.02000000	      0.02000000	      0.02000000	      0.11030569	      0.02000000	      0.02000000	      0.07067252	      0.02000000	      0.07990726	      0.02000000	      0.05078286	      0.02000000	      0.05790657	      0.02000000	      0.07739691	      0.02000000	      0.06729125	      0.56677411	      0.68637776	      0.02000000	      0.99999673	      0.98093554	      0.62018364	      0.85516363	      0.73062545	      0.42405630	      0.04297583	      0.02000000	      0.30506839	      0.02000000	      0.05590520	      0.02000000	      0.06223650	      0.30197677	      0.02669431	      0.02000000	      0.07804360	      0.07181975	      0.02000000	      0.30534759	      0.06924739	      0.06099481	      0.24078651	      0.02000000	      0.05965108	      0.92776237	      0.07417646	      0.02000000	      0.06778829	      0.02000000	      0.04504030	      0.17373191	      0.10854907	      0.53970792	      0.10232390	      0.31775387	      0.10559799
      0.58868010	     -6.98815224	      3.47325620	     -5.50945193	      0.13234777	      0.97355452	     -0.21127772	     22.99018142	     -4.60993329	     -1.63913432	     72.85423139	     72.85423139	    -24.27260004	      0.00000000	     -0.00000000	     28.36414458	      3.59920176	     -3.36684677	     27.82503459	     27.82503459	     11.19662526	      0.00000000	     -0.00000000	     -8.66394098	     -7.01737139	      8.00858450	     -0.48955335	     -6.70090545	     -6.17933390	     37.20330869	     51.09457891	      0.00000000	      0.00000000	      7.48868285	    -12.41315669	      1.30091947	     40.01789602	     47.17435862	     -0.00000000	      0.00000000	     -1.81317734	     -2.94260614	     -8.90319380	      1.27831800	      0.18245709	      0.02338754	    208.98741018	     13.70499408	     15.39636799	    162.61466905	    162.61466905	    240.47682443	      0.00000000	      0.00000000	   -111.66679104	     10.36695237	     14.18302821	    -10.64294117	    -10.64294117	   1033.92709893	      0.00000000	     -0.00000000	     -6.45024136	      2.39606409	     -7.94744686	    -17.88065431	     -2.62683687	     10.89625408	    -25.59213634	     -2.72305101	      0.00000000	      0.00000000	     13.58727794	     -1.50035653	      5.55068496	     57.73434833	      2.33884355	     -0.00000000	      0.00000000	      0.06809998	      0.26212048	      0.10836706	      0.02000000	      0.02000000	      0.16310752	      0.02000000	      0.02000000	      0.02000000	      0.07624140	      0.47925972	      0.42217861	      0.08779257	      0.02000000	      0.10087808	      0.02000000	      0.04513132	      0.02000000	      0.04861230	      0.02000000	      0.03184004	      0.02000000	      0.02144790	      0.02000000	      0.02000000	      0.02000000	      0.03387979	      0.02000000	      0.02000000	      0.09876756	      0.08820830	      0.06046818	      0.03715984	      0.22799475	      0.53046981	      0.02000000	      0.05160092	      0.02000000	      0.05652663	      0.07941287	      0.02350007	      0.56635080	      0.02000000	      0.10709462	      0.48586491	      0.08270337	      0.03696413	      0.05667753	      0.19253776	      0.02000000	      0.03680789	      0.20715526	      0.09415161	      0.63210374	      0.08827419	      0.02000000	      0.03893342	      0.02000000	      0.14075851	      0.02000000	      0.13776420	      0.02000000	      0.13551659	      0.02000000	      0.02000000	      0.09669475	      0.02000000	      0.05163101	      0.16299804	      0.02000000	      0.02000000	      0.02000000	      0.11018793	      0.02000000	      0.02000000	      0.07031426	      0.02000000	      0.07951883	      0.02000000	      0.05087190	      0.02000000	      0.05811442	      0.02000000	      0.07804227	      0.02000000	      0.06790865	      0.56646661	      0.68875127	      0.02000000	      0.99999691	      0.98197873	      0.60964832	      0.86387395	      0.73799182	      0.42958057	      0.04296812	      0.02000000	      0.29763736	      0.02000000	      0.05600743	      0.02000000	      0.06237520	      0.29466100	      0.02672560	      0.02000000	      0.07705949	      0.07192596	      0.02000000	      0.29790612	      0.06931613	      0.06032809	      0.24068178	      0.02000000	      0.06020835	      0.93187200	      0.07424029	      0.02000000	      0.06743256	      0.02000000	      0.04515673	      0.17410515	      0.10854558	      0.54347207	      0.10232919	      0.32150272	      0.10558255
